<svg width="45" height="34" viewBox="0 0 45 34" fill="none" xmlns="http://www.w3.org/2000/svg">
<g filter="url(#filter0_d_603_167)">
<path fill-rule="evenodd" clip-rule="evenodd" d="M5.00677 2.91921C4.92274 1.94833 5.63026 1.09215 6.58707 1.00687C7.54388 0.921599 8.38766 1.63952 8.4717 2.6104C8.75969 5.93749 9.53825 10.904 10.9104 14.9896C11.5997 17.0418 12.4006 18.7545 13.2843 19.9207C14.1728 21.0933 14.947 21.4706 15.599 21.4706C16.6791 21.4706 17.7453 20.8937 18.8212 19.6248C19.5663 18.7462 20.2409 17.6176 20.8383 16.351C20.7705 16.183 20.7044 16.015 20.6399 15.8474C19.8014 13.6669 19.2017 11.4344 18.811 9.61471C18.4312 7.84559 18.2174 6.3203 18.2174 5.58832C18.2174 2.8069 20.5023 1.00011 22.7392 1.00011V4.5295C22.1934 4.5295 21.6957 4.98153 21.6957 5.58832C21.6957 5.91516 21.8363 7.12515 22.2096 8.86338C22.3552 9.5415 22.5314 10.2776 22.7392 11.0433C22.947 10.2776 23.1233 9.5415 23.2689 8.86338C23.6421 7.12515 23.7827 5.91516 23.7827 5.58832C23.7827 4.98153 23.285 4.5295 22.7392 4.5295V1.00011C24.9761 1.00011 27.261 2.8069 27.261 5.58832C27.261 6.3203 27.0472 7.84559 26.6674 9.61471C26.2767 11.4344 25.677 13.6669 24.8385 15.8474C24.774 16.015 24.7079 16.183 24.6401 16.351C25.2375 17.6176 25.9122 18.7462 26.6572 19.6248C27.7331 20.8937 28.7993 21.4706 29.8794 21.4706C30.5314 21.4706 31.3056 21.0933 32.1941 19.9207C33.0778 18.7545 33.8788 17.0418 34.568 14.9896C35.9402 10.904 36.7187 5.93749 37.0067 2.6104C37.0908 1.63952 37.9345 0.921599 38.8913 1.00687C39.8482 1.09215 40.5557 1.94833 40.4716 2.91921C40.169 6.41562 39.3528 11.6843 37.8603 16.1281C37.1172 18.3406 36.1684 20.4661 34.9516 22.072C33.7396 23.6714 32.0626 25 29.8794 25C27.4157 25 25.4696 23.6357 24.0205 21.9267C23.5596 21.3831 23.1332 20.7874 22.7392 20.158C22.3452 20.7874 21.9188 21.3831 21.4579 21.9267C20.0088 23.6357 18.0628 25 15.599 25C13.4158 25 11.7388 23.6714 10.5269 22.072C9.31003 20.4661 8.36119 18.3406 7.6181 16.1281C6.12562 11.6843 5.30943 6.41562 5.00677 2.91921Z" fill="#7864F4"/>
<path d="M6.58707 1.00687L6.54268 0.508849L6.54268 0.508849L6.58707 1.00687ZM5.00677 2.91921L4.50864 2.96233L4.50864 2.96233L5.00677 2.91921ZM8.4717 2.6104L7.97356 2.65352L7.97356 2.65352L8.4717 2.6104ZM10.9104 14.9896L10.4364 15.1488L10.4364 15.1488L10.9104 14.9896ZM13.2843 19.9207L12.8858 20.2227L12.8858 20.2227L13.2843 19.9207ZM18.8212 19.6248L18.4399 19.3014L18.4399 19.3014L18.8212 19.6248ZM20.8383 16.351L21.2905 16.5642L21.3837 16.3666L21.302 16.1639L20.8383 16.351ZM20.6399 15.8474L20.1732 16.0269L20.1732 16.0269L20.6399 15.8474ZM18.811 9.61471L18.3222 9.71967L18.3222 9.71967L18.811 9.61471ZM22.7392 1.00011H23.2392V0.500107H22.7392V1.00011ZM22.7392 4.5295V5.0295H23.2392V4.5295H22.7392ZM22.2096 8.86338L21.7207 8.96834L21.7207 8.96834L22.2096 8.86338ZM22.7392 11.0433L22.2567 11.1742L22.7392 12.952L23.2217 11.1742L22.7392 11.0433ZM23.2689 8.86338L23.7577 8.96834L23.7577 8.96834L23.2689 8.86338ZM22.7392 4.5295H22.2392V5.0295H22.7392V4.5295ZM22.7392 1.00011V0.500107H22.2392V1.00011H22.7392ZM26.6674 9.61471L27.1562 9.71967L27.1562 9.71967L26.6674 9.61471ZM24.8385 15.8474L24.3718 15.6679L24.3718 15.668L24.8385 15.8474ZM24.6401 16.351L24.1765 16.1639L24.0947 16.3666L24.1879 16.5642L24.6401 16.351ZM26.6572 19.6248L26.2758 19.9482L26.2758 19.9482L26.6572 19.6248ZM32.1941 19.9207L32.5926 20.2227L32.5926 20.2227L32.1941 19.9207ZM34.568 14.9896L35.042 15.1488L35.042 15.1488L34.568 14.9896ZM37.0067 2.6104L37.5049 2.65352L37.5049 2.65352L37.0067 2.6104ZM38.8913 1.00687L38.9357 0.508849L38.9357 0.508849L38.8913 1.00687ZM40.4716 2.91921L40.9698 2.96233L40.9698 2.96233L40.4716 2.91921ZM37.8603 16.1281L37.3863 15.9689L37.3863 15.9689L37.8603 16.1281ZM34.9516 22.072L34.553 21.77L34.9516 22.072ZM24.0205 21.9267L24.4019 21.6033L24.4019 21.6033L24.0205 21.9267ZM22.7392 20.158L23.163 19.8927L22.7392 19.2156L22.3154 19.8927L22.7392 20.158ZM21.4579 21.9267L21.0765 21.6033L21.0765 21.6033L21.4579 21.9267ZM10.5269 22.072L10.9254 21.77L10.9254 21.77L10.5269 22.072ZM7.6181 16.1281L8.09208 15.9689L8.09208 15.9689L7.6181 16.1281ZM6.54268 0.508849C5.30461 0.619191 4.40141 1.72358 4.50864 2.96233L5.50491 2.87609C5.44406 2.17308 5.9559 1.56511 6.63145 1.5049L6.54268 0.508849ZM8.96983 2.56728C8.86253 1.32759 7.78179 0.398414 6.54268 0.508849L6.63145 1.5049C7.30597 1.44478 7.91279 1.95145 7.97356 2.65352L8.96983 2.56728ZM11.3844 14.8304C10.0291 10.795 9.25579 5.87076 8.96983 2.56728L7.97356 2.65352C8.2636 6.00421 9.04741 11.013 10.4364 15.1488L11.3844 14.8304ZM13.6828 19.6187C12.8463 18.5148 12.0662 16.8603 11.3844 14.8304L10.4364 15.1488C11.1332 17.2232 11.9549 18.9942 12.8858 20.2227L13.6828 19.6187ZM15.599 20.9706C15.1684 20.9706 14.5244 20.7294 13.6828 19.6187L12.8858 20.2227C13.8213 21.4572 14.7257 21.9706 15.599 21.9706V20.9706ZM18.4399 19.3014C17.4174 20.5073 16.4782 20.9706 15.599 20.9706V21.9706C16.8799 21.9706 18.0732 21.2802 19.2026 19.9482L18.4399 19.3014ZM20.386 16.1377C19.8001 17.3801 19.1473 18.4671 18.4399 19.3014L19.2026 19.9482C19.9852 19.0252 20.6817 17.8552 21.2905 16.5642L20.386 16.1377ZM21.302 16.1639C21.2352 15.9985 21.1701 15.8331 21.1066 15.6679L20.1732 16.0269C20.2386 16.197 20.3058 16.3674 20.3746 16.5381L21.302 16.1639ZM21.1066 15.6679C20.2796 13.5175 19.6866 11.311 19.2999 9.50974L18.3222 9.71967C18.7168 11.5579 19.3232 13.8164 20.1732 16.0269L21.1066 15.6679ZM19.2999 9.50974C18.921 7.74518 18.7174 6.26383 18.7174 5.58832H17.7174C17.7174 6.37678 17.9413 7.94601 18.3222 9.71967L19.2999 9.50974ZM18.7174 5.58832C18.7174 3.11197 20.7486 1.50011 22.7392 1.50011V0.500107C20.256 0.500107 17.7174 2.50183 17.7174 5.58832H18.7174ZM22.2392 1.00011V4.5295H23.2392V1.00011H22.2392ZM22.7392 4.0295C21.9267 4.0295 21.1957 4.69606 21.1957 5.58832H22.1957C22.1957 5.267 22.4601 5.0295 22.7392 5.0295V4.0295ZM21.1957 5.58832C21.1957 5.97185 21.3466 7.22601 21.7207 8.96834L22.6984 8.75841C22.3261 7.02429 22.1957 5.85847 22.1957 5.58832H21.1957ZM21.7207 8.96834C21.8681 9.65468 22.0464 10.3995 22.2567 11.1742L23.2217 10.9123C23.0164 10.1558 22.8423 9.42832 22.6984 8.75841L21.7207 8.96834ZM22.78 8.75841C22.6362 9.42832 22.462 10.1558 22.2567 10.9123L23.2217 11.1742C23.432 10.3995 23.6103 9.65468 23.7577 8.96834L22.78 8.75841ZM23.2827 5.58832C23.2827 5.85847 23.1523 7.02429 22.78 8.75841L23.7577 8.96834C24.1318 7.22601 24.2827 5.97185 24.2827 5.58832H23.2827ZM22.7392 5.0295C23.0183 5.0295 23.2827 5.267 23.2827 5.58832H24.2827C24.2827 4.69606 23.5517 4.0295 22.7392 4.0295V5.0295ZM22.2392 1.00011V4.5295H23.2392V1.00011H22.2392ZM27.761 5.58832C27.761 2.50183 25.2224 0.500107 22.7392 0.500107V1.50011C24.7298 1.50011 26.761 3.11197 26.761 5.58832H27.761ZM27.1562 9.71967C27.5371 7.94601 27.761 6.37678 27.761 5.58832H26.761C26.761 6.26383 26.5574 7.74518 26.1785 9.50974L27.1562 9.71967ZM25.3052 16.0269C26.1552 13.8164 26.7616 11.5579 27.1562 9.71967L26.1785 9.50974C25.7918 11.311 25.1988 13.5175 24.3718 15.6679L25.3052 16.0269ZM25.1038 16.5381C25.1727 16.3674 25.2398 16.197 25.3052 16.0269L24.3718 15.668C24.3083 15.8331 24.2432 15.9985 24.1765 16.1639L25.1038 16.5381ZM24.1879 16.5642C24.7967 17.8552 25.4932 19.0252 26.2758 19.9482L27.0385 19.3014C26.3311 18.4671 25.6783 17.3801 25.0924 16.1377L24.1879 16.5642ZM26.2758 19.9482C27.4052 21.2802 28.5985 21.9706 29.8794 21.9706V20.9706C29.0002 20.9706 28.061 20.5073 27.0385 19.3014L26.2758 19.9482ZM29.8794 21.9706C30.7527 21.9706 31.6572 21.4572 32.5926 20.2227L31.7956 19.6187C30.954 20.7294 30.31 20.9706 29.8794 20.9706V21.9706ZM32.5926 20.2227C33.5235 18.9942 34.3453 17.2232 35.042 15.1488L34.094 14.8304C33.4123 16.8603 32.6321 18.5148 31.7956 19.6187L32.5926 20.2227ZM35.042 15.1488C36.431 11.013 37.2148 6.00421 37.5049 2.65352L36.5086 2.56728C36.2226 5.87076 35.4493 10.795 34.094 14.8304L35.042 15.1488ZM37.5049 2.65352C37.5656 1.95145 38.1724 1.44478 38.847 1.5049L38.9357 0.508849C37.6966 0.398414 36.6159 1.32759 36.5086 2.56728L37.5049 2.65352ZM38.847 1.5049C39.5225 1.56511 40.0343 2.17308 39.9735 2.87609L40.9698 2.96233C41.077 1.72358 40.1738 0.619191 38.9357 0.508849L38.847 1.5049ZM39.9735 2.87609C39.6729 6.34888 38.862 11.5753 37.3863 15.9689L38.3343 16.2873C39.8436 11.7933 40.6651 6.48236 40.9698 2.96233L39.9735 2.87609ZM37.3863 15.9689C36.6508 18.159 35.7227 20.2264 34.553 21.77L35.3501 22.374C36.614 20.7059 37.5837 18.5222 38.3343 16.2873L37.3863 15.9689ZM34.553 21.77C33.3854 23.3109 31.8384 24.5 29.8794 24.5V25.5C32.2869 25.5 34.0938 24.0318 35.3501 22.374L34.553 21.77ZM29.8794 24.5C27.6181 24.5 25.799 23.2511 24.4019 21.6033L23.6391 22.2501C25.1402 24.0203 27.2132 25.5 29.8794 25.5V24.5ZM24.4019 21.6033C23.9588 21.0808 23.5464 20.5052 23.163 19.8927L22.3154 20.4233C22.72 21.0697 23.1603 21.6853 23.6391 22.2501L24.4019 21.6033ZM21.8393 22.2501C22.3181 21.6853 22.7584 21.0697 23.163 20.4233L22.3154 19.8927C21.932 20.5052 21.5196 21.0808 21.0765 21.6033L21.8393 22.2501ZM15.599 25.5C18.2652 25.5 20.3382 24.0203 21.8393 22.2501L21.0765 21.6033C19.6794 23.2511 17.8603 24.5 15.599 24.5V25.5ZM10.1283 22.374C11.3846 24.0318 13.1915 25.5 15.599 25.5V24.5C13.64 24.5 12.093 23.3109 10.9254 21.77L10.1283 22.374ZM7.14411 16.2873C7.89473 18.5222 8.86438 20.7059 10.1283 22.374L10.9254 21.77C9.75568 20.2264 8.82764 18.159 8.09208 15.9689L7.14411 16.2873ZM4.50864 2.96233C4.81333 6.48236 5.63478 11.7933 7.14411 16.2873L8.09208 15.9689C6.61646 11.5753 5.80552 6.34888 5.50491 2.87609L4.50864 2.96233Z" fill="black"/>
</g>
<defs>
<filter id="filter0_d_603_167" x="0.5" y="0.499939" width="44.4784" height="33.0001" filterUnits="userSpaceOnUse" color-interpolation-filters="sRGB">
<feFlood flood-opacity="0" result="BackgroundImageFix"/>
<feColorMatrix in="SourceAlpha" type="matrix" values="0 0 0 0 0 0 0 0 0 0 0 0 0 0 0 0 0 0 127 0" result="hardAlpha"/>
<feOffset dy="4"/>
<feGaussianBlur stdDeviation="2"/>
<feComposite in2="hardAlpha" operator="out"/>
<feColorMatrix type="matrix" values="0 0 0 0 0 0 0 0 0 0 0 0 0 0 0 0 0 0 0.25 0"/>
<feBlend mode="normal" in2="BackgroundImageFix" result="effect1_dropShadow_603_167"/>
<feBlend mode="normal" in="SourceGraphic" in2="effect1_dropShadow_603_167" result="shape"/>
</filter>
</defs>
</svg>
